<svg xmlns="http://www.w3.org/2000/svg" viewBox="0 0 512.001 512.001" width="512" height="512"><path d="M186.932 56.049a8.03 8.03 0 1 0 0 16.06h66.178a49.992 49.992 0 0 1 7.076-16.06h-73.254z" fill="#6a425c"/><path d="M487.727 0H143.362c-6.097 0-11.042 4.943-11.042 11.042v230.754c0 6.098 4.943 11.042 11.042 11.042h57.443l.112-22.083h-46.512V22.083h322.281v208.672h-114.31v22.083h125.35c6.098 0 11.042-4.943 11.042-11.042V11.042C498.768 4.943 493.824 0 487.727 0z" fill="#6a425c"/><path d="M301.929 48.796c-19.437 0-35.194 15.757-35.194 35.194a35.111 35.111 0 0 0 10.897 25.447h48.593c6.71-6.408 10.897-15.436 10.897-25.447.001-19.437-15.756-35.194-35.193-35.194z" fill="#6a425c"/><path d="M457.638 77.835a16.884 16.884 0 0 0-6.846-3.919l-3.764-17.923c-1.139-5.424-6.46-8.899-11.886-7.76-4.038.848-6.992 4.015-7.77 7.816h-83.699a50.017 50.017 0 0 1 7.076 16.061H429.9l1.784 8.495-34.533 36.62-62.176 7.27h-78.484c-21.954 0-40.073 17.858-40.184 39.983l-.62 123.512c-.06 11.935 8.454 18.265 16.889 18.307h.087c9.335-.001 16.928-7.547 16.975-16.896l.182-36.256.445-88.497a3.554 3.554 0 0 1 7.107.097c-.009 158.547-.369 37.714-.369 257.017a56.276 56.276 0 0 1 20.245-4.699v-4.024a51.62 51.62 0 0 1-5.342-22.916c0-19.137 10.407-35.878 25.852-44.893v-58.002h8.799v53.913a51.722 51.722 0 0 1 17.306-2.975 51.625 51.625 0 0 1 23.449 5.615l-.065-186.529c10.592-1.239 53.025-6.2 59.988-7.013a16.98 16.98 0 0 0 10.382-5.216l40.724-43.183c6.436-6.823 6.12-17.57-.703-24.005zm-51.059 395.749c-.106-21.358-17.601-38.625-38.82-38.625H279.69c-21.299 0-38.714 17.328-38.821 38.626L240.676 512h14.487c0-22.289 18.217-40.124 40.124-40.124h58.302c22.066 0 40.122 17.974 40.122 40.124h13.062l-.194-38.416z" fill="#6a425c"/><path d="M323.862 356.124c-18.775 0-33.998 15.22-33.998 33.998 0 18.796 15.272 33.998 33.998 33.998 18.662 0 33.998-15.117 33.998-33.998.001-18.777-15.221-33.998-33.998-33.998zm-227.719 0c-18.734 0-33.998 15.175-33.998 33.998-.001 18.887 15.347 33.998 33.998 33.998 18.732 0 33.998-15.208 33.998-33.998.001-18.777-15.221-33.998-33.998-33.998zM353.589 483.33h-58.302c-15.834 0-28.67 12.835-28.67 28.67h115.642c0-15.834-12.836-28.67-28.67-28.67zm-230.358 0H64.929c-15.834 0-28.67 12.835-28.67 28.67h115.642c0-15.834-12.836-28.67-28.67-28.67z" fill="#6a425c"/><path d="M211.076 318.535c-7.815-1.775-15.585 3.126-17.356 10.938l-17.192 75.796-40.586 29.69H52.247c-21.191 0-38.713 17.239-38.821 38.626l-.193 38.416h11.573c0-22.151 18.052-40.124 40.124-40.124h58.302a39.859 39.859 0 0 1 20.446 5.62l.228-12.414 54.136-39.601a14.5 14.5 0 0 0 5.582-8.5l18.392-81.09c1.772-7.814-3.126-15.585-10.94-17.357z" fill="#6a425c"/></svg>